<?xml version="1.0" encoding="UTF-8"?>
<svg width="602px" height="60px" viewBox="0 0 602 60" version="1.1" xmlns="http://www.w3.org/2000/svg" xmlns:xlink="http://www.w3.org/1999/xlink">
    <!-- Generator: Sketch 44.1 (41455) - http://www.bohemiancoding.com/sketch -->
    <title>Artboard</title>
    <desc>Created with Sketch.</desc>
    <defs></defs>
    <g id="Page-1" stroke="none" stroke-width="1" fill="none" fill-rule="evenodd">
        <g id="Artboard" fill="#FBE400">
            <path d="M14.6773667,38.2384019 L0,41.2315331 L0.172409534,42.360323 C1.57692242,51.5550804 10.3023834,58.4641671 20.8142133,58.4641671 C32.2577438,58.4641671 41.6041994,50.5928173 41.6041994,40.7199783 C41.6041994,32.4552159 34.6412978,26.8896565 26.4465017,24.8247104 C21.5924058,23.593164 15.7217097,22.3704939 15.7217097,18.5788765 C15.7217097,16.1621494 18.0787392,14.1819286 20.8528166,14.1819286 C24.4807267,14.1819286 25.9259315,16.7394586 25.9259315,20.2705646 L40.6849604,17.3013821 L40.5295725,16.1840444 C39.2629733,7.07575274 31.2806869,0.0641531944 20.7754707,0.0641531944 C9.25431585,0.0641531944 0.803359509,7.98816919 0.803359509,17.7906938 C0.803359509,25.8641105 7.50641108,31.6393251 15.4880013,33.9988608 C20.5789733,35.5058169 26.7962637,36.0929074 26.7962637,39.8974042 C26.7962637,42.1117511 23.6552286,44.2941084 20.7174788,44.2941084 L19.9747567,44.2941084 L19.9636178,44.2926464 C17.213872,43.9348783 14.6773667,41.8581667 14.6773667,39.7374563 L14.6773667,38.2384019 Z M81.3297853,44.2705078 C78.1120658,44.2705078 75.4366722,43.3370667 73.1337361,41.412436 C70.8210535,39.4388986 69.7096682,37.1882806 69.7096682,34.5243392 L69.7096682,0.463378906 L55.5944338,0.463378906 L55.5944338,35.0135117 C55.5944338,41.4618998 58.0095596,47.0515122 62.769114,51.6147084 C67.5301304,56.1554875 73.8119569,58.4570312 81.3697114,58.4570312 C88.8525915,58.4570312 95.1058049,56.1542344 99.889308,51.6158223 C104.651125,47.0504332 107.065137,41.4623175 107.065137,35.0135117 L107.065137,0.463378906 L92.9499025,0.463378906 L92.9499025,34.5243392 C92.9499025,40.1330619 87.150948,44.2705078 81.3297853,44.2705078 Z M139.288343,16.7351074 C139.288343,18.2667067 141.205931,19.1767578 142.812365,19.1767578 L143.272627,19.1767578 C144.581825,19.0323114 146.2176,18.1946584 146.2176,16.7351074 C146.2176,15.2279359 144.265626,14.293457 142.772769,14.293457 C141.172149,14.293457 139.288343,15.2382998 139.288343,16.7351074 Z M161.08418,16.7217059 C161.08418,19.9277296 160.154499,22.9207563 158.378538,25.5469646 C162.090442,29.2386799 163.935743,33.6999202 163.935743,38.8609629 C163.935743,44.1223602 161.95949,48.6986098 158.081094,52.4160838 C154.118112,56.1134729 148.81321,57.9936523 142.693578,57.9936523 C136.575183,57.9936523 131.265989,56.1108274 127.305,52.4188337 C123.404256,48.7281976 121.411817,44.1447773 121.411817,38.8609629 C121.411817,33.6979012 123.31873,29.1981273 127.0259,25.5256963 C125.216836,22.8380151 124.334669,19.9173913 124.334669,16.7217059 C124.334669,12.2326531 126.041916,8.31332111 129.371199,5.1465621 C132.954995,1.97767973 137.509512,0.356410503 142.733174,0.356410503 C147.91055,0.356410503 152.451108,1.97444248 156.081624,5.14492607 C159.396356,8.32212782 161.08418,12.2333841 161.08418,16.7217059 Z M142.654022,44.0922503 C146.132676,44.0922503 149.385299,41.4944914 149.385299,38.0683246 C149.385299,36.4446187 148.74299,35.0632887 147.368004,33.774899 C146.093748,32.6370587 144.792772,32.1078906 143.246488,31.992394 L143.149162,32.0800433 L142.574868,32.0800433 C139.059957,32.0800433 135.962339,34.760519 135.962339,38.1396136 C135.962339,41.5201865 139.054918,44.0922503 142.654021,44.0922503 L142.654022,44.0922503 Z M178.282422,57.9936523 L217.919141,57.9936523 L217.919141,44.0209961 L192.998288,44.0209961 L192.998288,36.1791992 L212.144727,36.1791992 L212.144727,22.1708984 L192.998288,22.1708984 L192.998288,14.3291016 L217.919141,14.3291016 L217.919141,0.320800781 L178.282422,0.320800781 L178.282422,57.9936523 Z M245.986494,57.9223633 L231.943314,57.9223633 L231.906173,0.463378906 L252.916222,0.463378906 C256.341508,0.463378906 259.683914,0.950532436 262.916045,1.91993141 C265.728203,2.90033007 268.195369,4.40136862 270.320152,6.41347456 C273.947888,9.89024353 276.248701,13.3112483 276.248701,19.7644053 L276.248701,21.1991673 C276.248701,25.1691117 274.938764,28.9203506 272.382035,32.3796453 C270.553129,34.8335485 269.02212,36.0925941 266.330018,37.31603 L280.136426,57.9223633 L263.060085,57.9223633 L245.986494,35.4721565 L245.986494,57.9223633 Z M254.21032,27.8027344 C258.055022,27.8027344 261.640952,24.916328 261.640952,20.9590192 C261.640952,19.1882796 260.9038,17.6735263 259.392945,16.3129425 C257.897476,15.0848074 254.704645,14.4003906 252.081326,14.4003906 L245.950884,14.4003906 L245.950884,27.7670898 L251.162922,27.7670898 L251.162922,27.8027344 L254.21032,27.8027344 Z M292.700879,57.9223633 L332.337598,57.9223633 L332.337598,43.949707 L306.744824,43.949707 L306.744824,0.463378906 L292.700879,0.463378906 L292.700879,57.9223633 Z M346.327832,57.9936523 L385.964551,57.9936523 L385.964551,44.0209961 L361.043698,44.0209961 L361.043698,36.1791992 L380.190137,36.1791992 L380.190137,22.1708984 L361.043698,22.1708984 L361.043698,14.3291016 L385.964551,14.3291016 L385.964551,0.320800781 L346.327832,0.320800781 L346.327832,57.9936523 Z M399.954785,0.320800781 L399.954785,57.9223633 L413.998731,57.9223633 L413.998731,36.7068009 L430.611693,57.8733172 L447.183789,36.7134843 L447.183789,57.9223633 L461.227735,57.9223633 L461.227735,0.320800781 L458.345296,0.320800781 L430.609848,36.8416514 L402.838024,0.320800781 L399.954785,0.320800781 Z M484.145358,8.59001875 C490.434076,2.88772917 496.99817,0 505.799584,0 C514.600372,0 521.167703,2.88943481 527.452628,8.58827829 C533.407318,14.287818 536.419629,21.2238817 536.419629,29.2255917 C536.419629,37.2491269 533.407423,44.1764188 527.448694,49.832273 C521.185734,55.4639001 514.621641,58.3144531 505.797983,58.3144531 C496.952257,58.2907829 490.392062,55.4438152 484.149256,49.8304977 C478.215556,44.1492329 475.217969,37.2265706 475.217969,29.2255917 C475.217969,21.246438 478.215695,14.3148994 484.145358,8.59001875 Z M516.840861,18.5519691 C513.45101,15.5929856 510.546329,14.1508789 505.799898,14.1508789 C500.972326,14.1508789 498.061414,15.5953875 494.727676,18.5463648 C491.331142,21.5523057 489.679276,25.0362105 489.679276,29.1559038 C489.679276,33.3226242 491.332639,36.8018994 494.721236,39.759769 C498.081499,42.692924 500.996762,44.1279645 505.799898,44.1279645 C510.522102,44.1279645 513.430751,42.6953607 516.847405,39.7541299 C520.256296,36.8195825 521.920555,33.3438926 521.920555,29.1559038 C521.920555,25.0149422 520.257828,21.5345879 516.840861,18.5519691 Z M550.409863,0.320800781 L550.409863,57.9223633 L564.876774,57.9223633 L564.876774,27.7558117 L598.435718,57.9223633 L601.59541,57.9223633 L601.59541,0.320800781 L587.090001,0.320800781 L587.090001,30.5587111 L553.450613,0.320800781 L550.409863,0.320800781 Z" id="su8erlemon"></path>
        </g>
    </g>
</svg>