<?xml version="1.0" encoding="UTF-8"?>
<svg width="21074px" height="2048px" viewBox="0 0 21074 2048" version="1.1" xmlns="http://www.w3.org/2000/svg" xmlns:xlink="http://www.w3.org/1999/xlink">
    <!-- Generator: Sketch 44.1 (41455) - http://www.bohemiancoding.com/sketch -->
    <title>Artboard</title>
    <desc>Created with Sketch.</desc>
    <defs></defs>
    <g id="Page-1" stroke="none" stroke-width="1" fill="none" fill-rule="evenodd">
        <g id="Artboard">
            <rect id="Rectangle" fill="#444444" x="0" y="0" width="21074" height="2048"></rect>
            <path d="M749.097865,1332.09704 L247,1434.48903 L252.897956,1473.10379 C300.94492,1787.64713 599.434112,2024 959.033175,2024 C1350.50478,2024 1670.23756,1754.72909 1670.23756,1416.98926 C1670.23756,1134.2601 1432.04375,943.867942 1151.70806,873.228223 C985.654354,831.098267 784.823782,789.27196 784.823782,659.564566 C784.823782,576.890778 865.455374,509.149429 960.353755,509.149429 C1084.46089,509.149429 1133.89988,596.63994 1133.89988,717.435503 L1638.79133,615.862774 L1633.47566,577.639782 C1590.14659,266.054341 1317.08065,26.1946159 957.707832,26.1946159 C563.580781,26.1946159 274.482116,297.267185 274.482116,632.601632 C274.482116,908.785049 503.786728,1106.3493 776.828854,1187.06663 C950.985853,1238.61807 1163.67307,1258.70184 1163.67307,1388.84983 C1163.67307,1464.60039 1056.22144,1539.25663 955.723985,1539.25663 L930.316216,1539.25663 L929.935165,1539.20662 C835.869142,1526.96773 749.097865,1455.92553 749.097865,1383.37817 L749.097865,1332.09704 Z M3029.20966,1538.44928 C2919.13473,1538.44928 2827.61223,1506.5172 2748.83111,1440.67753 C2669.71658,1373.16481 2631.69721,1296.17345 2631.69721,1205.04271 L2631.69721,39.8517235 L2148.82933,39.8517235 L2148.82933,1221.77681 C2148.82933,1442.36964 2231.44834,1633.58462 2394.26788,1789.68695 C2557.13743,1945.02241 2772.03236,2023.75589 3030.57549,2023.75589 C3286.55725,2023.75589 3500.47335,1944.97954 3664.11215,1789.72505 C3827.00909,1633.54771 3909.59,1442.38393 3909.59,1221.77681 L3909.59,39.8517235 L3426.72211,39.8517235 L3426.72211,1205.04271 C3426.72211,1396.91144 3228.34575,1538.44928 3029.20966,1538.44928 Z M5011.91328,596.491091 C5011.91328,648.885554 5077.51203,680.017481 5132.4665,680.017481 L5148.21159,680.017481 C5192.99793,675.076116 5248.95613,646.420854 5248.95613,596.491091 C5248.95613,544.93228 5182.1811,512.964702 5131.11196,512.964702 C5076.35636,512.964702 5011.91326,545.286818 5011.91328,596.491091 Z M5757.52682,596.032639 C5757.52682,705.707466 5725.72335,808.095882 5664.96952,897.935811 C5791.95002,1024.22565 5855.07589,1176.84017 5855.07589,1353.39422 C5855.07589,1533.3813 5787.47029,1689.93017 5654.79427,1817.10119 C5519.22468,1943.58513 5337.74932,2007.90417 5128.40291,2007.90417 C4919.09883,2007.90417 4737.47665,1943.49463 4601.97523,1817.19526 C4468.53473,1690.94233 4400.37541,1534.14816 4400.37541,1353.39422 C4400.37541,1176.7711 4465.60897,1022.83839 4592.42752,897.208241 C4530.54126,805.265387 4500.36321,705.353803 4500.36321,596.032639 C4500.36321,442.466686 4558.76643,308.390303 4672.65782,200.058682 C4795.25584,91.6544224 4951.06125,36.1924427 5129.75744,36.1924427 C5306.87027,36.1924427 5462.19815,91.5436795 5586.39441,200.002715 C5699.78806,308.691572 5757.52682,442.491693 5757.52682,596.032639 Z M5127.04973,1532.35127 C5246.05099,1532.35127 5357.31994,1443.48457 5357.31994,1326.27886 C5357.31994,1270.73353 5335.34717,1223.47963 5288.31031,1179.40512 C5244.71928,1140.48076 5200.21423,1122.37845 5147.31742,1118.42743 L5143.98797,1121.42582 L5124.34198,1121.42582 C5004.10043,1121.42582 4898.13406,1213.12218 4898.13406,1328.71759 C4898.13406,1444.36357 5003.92804,1532.35127 5127.04971,1532.35127 L5127.04973,1532.35127 Z M6345.86126,2007.90417 L7701.79331,2007.90417 L7701.79331,1529.91373 L6849.27614,1529.91373 L6849.27614,1261.6538 L7504.25644,1261.6538 L7504.25644,782.444002 L6849.27614,782.444002 L6849.27614,514.184066 L7701.79331,514.184066 L7701.79331,34.9742701 L6345.86126,34.9742701 L6345.86126,2007.90417 Z M8661.94904,2005.46544 L8181.54608,2005.46544 L8180.27552,39.8517235 L8899.00804,39.8517235 C9016.18362,39.8517235 9130.52394,56.5167528 9241.09186,89.6789109 C9337.29296,123.217357 9421.69219,174.566367 9494.37887,243.398475 C9618.48005,362.335224 9697.18853,479.364335 9697.18853,700.120305 L9697.18853,749.202061 C9697.18853,885.009845 9652.37692,1013.33593 9564.9138,1131.6749 C9502.34879,1215.62045 9449.97451,1258.69113 9357.88043,1300.54363 L9830.18368,2005.46544 L9246.01932,2005.46544 L8661.94904,1237.46658 L8661.94904,2005.46544 Z M8943.27784,975.103411 C9074.80118,975.103411 9197.47223,876.362368 9197.47223,740.986839 C9197.47223,680.41163 9172.25499,628.593451 9120.57017,582.049257 C9069.41169,540.035997 8960.18817,516.622792 8870.44708,516.622792 L8660.73087,516.622792 L8660.73087,973.884047 L8839.02942,973.884047 L8839.02942,975.103411 L8943.27784,975.103411 Z M10260.0009,2005.46544 L11615.9329,2005.46544 L11615.9329,1527.47501 L10740.4301,1527.47501 L10740.4301,39.8517235 L10260.0009,39.8517235 L10260.0009,2005.46544 Z M12094.5247,2007.90417 L13450.4567,2007.90417 L13450.4567,1529.91373 L12597.9396,1529.91373 L12597.9396,1261.6538 L13252.9199,1261.6538 L13252.9199,782.444002 L12597.9396,782.444002 L12597.9396,514.184066 L13450.4567,514.184066 L13450.4567,34.9742701 L12094.5247,34.9742701 L12094.5247,2007.90417 Z M13929.0485,34.9742701 L13929.0485,2005.46544 L14409.4777,2005.46544 L14409.4777,1279.70252 L14977.7903,2003.78762 L15544.7049,1279.93115 L15544.7049,2005.46544 L16025.1341,2005.46544 L16025.1341,34.9742701 L15926.5288,34.9742701 L14977.7272,1284.31562 L14027.6812,34.9742701 L13929.0485,34.9742701 Z M16809.1228,317.85585 C17024.2535,122.786293 17248.8045,24 17549.892,24 C17850.958,24 18075.6198,122.844641 18290.6207,317.79631 C18494.3246,512.771795 18597.3727,750.047518 18597.3727,1023.77792 C18597.3727,1298.25494 18494.3282,1535.23059 18290.4861,1728.71164 C18076.2366,1921.3639 17851.6856,2018.87844 17549.8372,2018.87844 C17247.2339,2018.0687 17022.8162,1920.67682 16809.2562,1728.65091 C16606.2703,1534.30058 16503.7259,1297.48331 16503.7259,1023.77792 C16503.7259,750.819147 16606.275,513.698225 16809.1228,317.85585 Z M17927.6029,658.644089 C17811.6395,557.420261 17712.2733,508.087249 17549.9027,508.087249 C17384.7564,508.087249 17285.177,557.502425 17171.1332,658.452373 C17054.9412,761.28257 16998.4325,880.46343 16998.4325,1021.39397 C16998.4325,1163.93326 17054.9924,1282.95574 17170.9129,1384.14147 C17285.8641,1484.48173 17385.5923,1533.57301 17549.9027,1533.57301 C17711.4445,1533.57301 17810.9465,1484.56509 17927.8268,1383.94856 C18044.4415,1283.56066 18101.3741,1164.66083 18101.3741,1021.39397 C18101.3741,879.73586 18044.4939,760.676461 17927.6029,658.644089 Z M19075.9645,34.9742701 L19075.9645,2005.46544 L19570.8629,2005.46544 L19570.8629,973.498233 L20718.8804,2005.46544 L20826.9703,2005.46544 L20826.9703,34.9742701 L20330.7549,34.9742701 L20330.7549,1069.38258 L19179.9855,34.9742701 L19075.9645,34.9742701 Z" id="su8erlemon" fill="#FBE400"></path>
        </g>
    </g>
</svg>