<?xml version="1.0" encoding="UTF-8"?>
<svg width="21074px" height="2048px" viewBox="0 0 21074 2048" version="1.1" xmlns="http://www.w3.org/2000/svg" xmlns:xlink="http://www.w3.org/1999/xlink">
    <!-- Generator: Sketch 44.1 (41455) - http://www.bohemiancoding.com/sketch -->
    <title>Artboard</title>
    <desc>Created with Sketch.</desc>
    <defs></defs>
    <g id="Page-1" stroke="none" stroke-width="1" fill="none" fill-rule="evenodd">
        <g id="Artboard" fill="#FBE400">
            <path d="M514.14824,1339.49143 L0,1444.34084 L6.03950697,1483.88235 C55.2396012,1805.97476 360.89255,2048.0001 729.122009,2048.0001 C1129.98895,2048.0001 1457.39534,1772.26668 1457.39534,1426.42107 C1457.39534,1136.9064 1213.48486,941.944821 926.421105,869.609745 C756.382097,826.468667 550.731581,783.638527 550.731581,650.818149 C550.731581,566.160186 633.298335,496.79304 730.474283,496.79304 C857.559995,496.79304 908.185525,586.383328 908.185525,710.077991 L1425.19439,606.067512 L1419.75115,566.927165 C1375.38218,247.863658 1095.76264,2.24728676 727.764857,2.24728676 C324.178737,2.24728676 28.1416881,279.825612 28.1416881,623.208103 C28.1416881,906.019936 262.949622,1108.32574 542.544775,1190.98029 C720.881551,1243.76897 938.673269,1264.33475 938.673269,1397.60629 C938.673269,1475.17488 828.642792,1551.62287 725.733398,1551.62287 L699.715841,1551.62287 L699.325644,1551.57165 C603.002032,1539.03904 514.14824,1466.29182 514.14824,1392.00332 L514.14824,1339.49143 Z M2848.98284,1550.79614 C2736.26611,1550.79614 2642.54705,1518.09769 2561.87519,1450.67787 C2480.8619,1381.54484 2441.93007,1302.70568 2441.93007,1209.3878 L2441.93007,16.2321657 L1947.47333,16.2321657 L1947.47333,1226.52351 C1947.47333,1452.41058 2032.0752,1648.21474 2198.80242,1808.06353 C2365.58085,1967.12705 2585.63327,2047.75014 2850.38145,2047.75014 C3112.50678,2047.75014 3331.55688,1967.08315 3499.12302,1808.10255 C3665.9295,1648.17694 3750.49235,1452.42522 3750.49235,1226.52351 L3750.49235,16.2321657 L3256.03561,16.2321657 L3256.03561,1209.3878 C3256.03561,1405.86138 3052.8982,1550.79614 2848.98284,1550.79614 Z M4879.27145,586.230908 C4879.27145,639.88284 4946.44458,671.761935 5002.71795,671.761935 L5018.84093,671.761935 C5064.70214,666.701977 5122.00334,637.358987 5122.00334,586.230908 C5122.00334,533.434682 5053.62571,500.699881 5001.3309,500.699881 C4945.26116,500.699881 4879.27143,533.797728 4879.27145,586.230908 Z M5642.77975,585.761453 C5642.77975,698.068481 5610.21299,802.914224 5548.00107,894.910316 C5678.02911,1024.23112 5742.67,1180.50839 5742.67,1361.29975 C5742.67,1545.60653 5673.44186,1705.91258 5537.58161,1836.13571 C5398.75834,1965.65527 5212.92757,2031.51797 4998.55683,2031.51797 C4784.22944,2031.51797 4598.24832,1965.5626 4459.49487,1836.23204 C4322.85178,1706.94904 4253.05664,1546.3918 4253.05664,1361.29975 C4253.05664,1180.43767 4319.85581,1022.81056 4449.71801,894.165285 C4386.34647,800.015797 4355.44415,697.70633 4355.44415,585.761453 C4355.44415,428.509909 4415.24905,291.215686 4531.87384,180.284099 C4657.41422,69.2781321 4816.95897,12.4850619 4999.94388,12.4850619 C5181.30742,12.4850619 5340.36318,69.1647313 5467.54016,180.226789 C5583.65526,291.524185 5642.77975,428.535515 5642.77975,585.761453 Z M4997.17118,1544.55178 C5119.02847,1544.55178 5232.96788,1453.55227 5232.96788,1333.53362 C5232.96788,1276.6552 5210.46777,1228.2672 5162.30202,1183.1349 C5117.6648,1143.27635 5072.09163,1124.73959 5017.9253,1120.69374 L5014.51594,1123.7641 L4994.39844,1123.7641 C4871.27109,1123.7641 4762.76152,1217.66118 4762.76152,1336.03088 C4762.76152,1454.45237 4871.09457,1544.55178 4997.17116,1544.55178 L4997.17118,1544.55178 Z M6245.23425,2031.51797 L7633.70873,2031.51797 L7633.70873,1542.05574 L6760.73111,1542.05574 L6760.73111,1267.35755 L7431.43098,1267.35755 L7431.43098,776.646698 L6760.73111,776.646698 L6760.73111,501.948509 L7633.70873,501.948509 L7633.70873,11.2376532 L6245.23425,11.2376532 L6245.23425,2031.51797 Z M8616.90826,2029.02071 L8124.9756,2029.02071 L8123.67454,16.2321657 L8859.65669,16.2321657 C8979.64449,16.2321657 9096.72898,33.2971566 9209.95053,67.2552082 C9308.46046,101.598579 9394.88528,154.179968 9469.31645,224.66405 C9596.39606,346.455287 9676.99354,466.293103 9676.99354,692.347228 L9676.99354,742.606949 C9676.99354,881.674126 9631.10646,1013.08004 9541.54422,1134.25916 C9477.47765,1220.2194 9423.84638,1264.32378 9329.54204,1307.18074 L9813.18059,2029.02071 L9214.99626,2029.02071 L8616.90826,1242.58984 L8616.90826,2029.02071 Z M8904.98896,973.929942 C9039.66887,973.929942 9165.28403,872.819109 9165.28403,734.19456 C9165.28403,672.165544 9139.46157,619.103726 9086.53632,571.442468 C9034.15003,528.420888 8922.30514,504.445765 8830.41026,504.445765 L8615.66085,504.445765 L8615.66085,972.681314 L8798.23857,972.681314 L8798.23857,973.929942 L8904.98896,973.929942 Z M10253.3134,2029.02071 L11641.7879,2029.02071 L11641.7879,1539.55849 L10745.2729,1539.55849 L10745.2729,16.2321657 L10253.3134,16.2321657 L10253.3134,2029.02071 Z M12131.8659,2031.51797 L13520.3404,2031.51797 L13520.3404,1542.05574 L12647.3628,1542.05574 L12647.3628,1267.35755 L13318.0626,1267.35755 L13318.0626,776.646698 L12647.3628,776.646698 L12647.3628,501.948509 L13520.3404,501.948509 L13520.3404,11.2376532 L12131.8659,11.2376532 L12131.8659,2031.51797 Z M14010.4184,11.2376532 L14010.4184,2029.02071 L14502.3779,2029.02071 L14502.3779,1285.83944 L15084.33,2027.30263 L15664.8507,1286.07356 L15664.8507,2029.02071 L16156.8101,2029.02071 L16156.8101,11.2376532 L16055.8383,11.2376532 L15084.2654,1290.56326 L14111.4183,11.2376532 L14010.4184,11.2376532 Z M16959.6146,300.908405 C17179.9085,101.157169 17409.8487,0 17718.1623,0 C18026.454,0 18256.5076,101.216918 18476.6685,300.847437 C18685.2614,500.502344 18790.7826,743.472697 18790.7826,1023.77264 C18790.7826,1304.83713 18685.265,1547.5002 18476.5307,1745.62481 C18257.1392,1942.90073 18027.199,2042.75562 17718.1062,2042.75562 C17408.2404,2041.92646 17178.4367,1942.19716 16959.7512,1745.56262 C16751.8936,1546.54788 16646.8881,1304.04698 16646.8881,1023.77264 C16646.8881,744.262844 16751.8985,501.451008 16959.6146,300.908405 Z M18104.9383,649.875581 C17986.1918,546.222375 17884.4408,495.705368 17718.1733,495.705368 C17549.0634,495.705368 17447.0942,546.306511 17330.3133,649.679263 C17211.3327,754.97739 17153.4678,877.018597 17153.4678,1021.33148 C17153.4678,1167.29171 17211.3851,1289.17075 17330.0877,1392.78493 C17447.7977,1495.53337 17549.9194,1545.80285 17718.1733,1545.80285 C17883.5921,1545.80285 17985.4821,1495.61873 18105.1675,1392.58739 C18224.581,1289.79018 18282.88,1168.03675 18282.88,1021.33148 C18282.88,876.273566 18224.6346,754.356734 18104.9383,649.875581 Z M19280.8606,11.2376532 L19280.8606,2029.02071 L19787.6366,2029.02071 L19787.6366,972.28624 L20963.2066,2029.02071 L21073.8906,2029.02071 L21073.8906,11.2376532 L20565.766,11.2376532 L20565.766,1070.47182 L19387.3781,11.2376532 L19280.8606,11.2376532 Z" id="su8erlemon"></path>
        </g>
    </g>
</svg>